name C:/MyDriveSym/Projects/mobilecap/Data\Session20210903_0001\mocap\ForceDataProcessed\DJAsym1_forces.mot
datacolumns 28
datarows 13
range 1.10450000 1.11050000
endheader 
time	R_ground_force_vx	R_ground_force_vy	R_ground_force_vz	R_ground_force_px	R_ground_force_py	R_ground_force_pz	R_ground_torque_x	R_ground_torque_y	R_ground_torque_z	L_ground_force_vx	L_ground_force_vy	L_ground_force_vz	L_ground_force_px	L_ground_force_py	L_ground_force_pz	L_ground_torque_x	L_ground_torque_y	L_ground_torque_z	3_ground_force_vx	3_ground_force_vy	3_ground_force_vz	3_ground_force_px	3_ground_force_py	3_ground_force_pz	3_ground_torque_x	3_ground_torque_y	3_ground_torque_z	
          1.10450000	       -169.14610900	        791.09562800	        -30.13615400	         -0.24658000	          0.00600000	         -0.49881200	          0.00000000	         -3.35811800	          0.00000000	        -83.18141200	        264.53650700	          1.18424500	         -0.22635800	          0.00600000	         -0.73103900	          0.00000000	          1.72634900	          0.00000000	          0.00000000	          0.00000000	          0.00000000	          0.00000000	          0.00000000	          0.00000000	          0.00000000	          0.00000000	          0.00000000	
          1.10500000	       -167.70304200	        790.76107600	        -30.09548700	         -0.24660300	          0.00600000	         -0.49882600	          0.00000000	         -3.39238900	          0.00000000	        -85.66763800	        263.06989300	          1.48410900	         -0.22487300	          0.00600000	         -0.73110300	          0.00000000	          1.65849000	          0.00000000	          0.00000000	          0.00000000	          0.00000000	          0.00000000	          0.00000000	          0.00000000	          0.00000000	          0.00000000	          0.00000000	
          1.10550000	       -166.23284900	        790.51051900	        -30.03168500	         -0.24663400	          0.00600000	         -0.49884300	          0.00000000	         -3.42749000	          0.00000000	        -88.03116200	        261.75608500	          1.74588500	         -0.22343700	          0.00600000	         -0.73116100	          0.00000000	          1.59302800	          0.00000000	          0.00000000	          0.00000000	          0.00000000	          0.00000000	          0.00000000	          0.00000000	          0.00000000	          0.00000000	          0.00000000	
          1.10600000	       -164.73805300	        790.33942800	        -29.94519600	         -0.24667200	          0.00600000	         -0.49886200	          0.00000000	         -3.46351000	          0.00000000	        -90.27190200	        260.58779000	          1.97210800	         -0.22205500	          0.00600000	         -0.73121200	          0.00000000	          1.53104700	          0.00000000	          0.00000000	          0.00000000	          0.00000000	          0.00000000	          0.00000000	          0.00000000	          0.00000000	          0.00000000	          0.00000000	
          1.10650000	       -163.22144400	        790.24258200	        -29.83673900	         -0.24671800	          0.00600000	         -0.49888200	          0.00000000	         -3.50052100	          0.00000000	        -92.39026100	        259.55788900	          2.16452900	         -0.22073000	          0.00600000	         -0.73125700	          0.00000000	          1.47345300	          0.00000000	          0.00000000	          0.00000000	          0.00000000	          0.00000000	          0.00000000	          0.00000000	          0.00000000	          0.00000000	          0.00000000	
          1.10700000	       -161.68600200	        790.21410500	        -29.70726600	         -0.24676900	          0.00600000	         -0.49890500	          0.00000000	         -3.53858000	          0.00000000	        -94.38760400	        258.65969800	          2.32458700	         -0.21946300	          0.00600000	         -0.73129300	          0.00000000	          1.42071700	          0.00000000	          0.00000000	          0.00000000	          0.00000000	          0.00000000	          0.00000000	          0.00000000	          0.00000000	          0.00000000	          0.00000000	
          1.10750000	       -160.13480200	        790.24754600	        -29.55791100	         -0.24682600	          0.00600000	         -0.49892900	          0.00000000	         -3.57773100	          0.00000000	        -96.26647700	        257.88717100	          2.45376500	         -0.21825700	          0.00600000	         -0.73132000	          0.00000000	          1.37278000	          0.00000000	          0.00000000	          0.00000000	          0.00000000	          0.00000000	          0.00000000	          0.00000000	          0.00000000	          0.00000000	          0.00000000	
          1.10800000	       -158.57094600	        790.33598600	        -29.38993000	         -0.24688800	          0.00600000	         -0.49895400	          0.00000000	         -3.61801600	          0.00000000	        -98.03051400	        257.23506300	          2.55376100	         -0.21711300	          0.00600000	         -0.73133700	          0.00000000	          1.32914100	          0.00000000	          0.00000000	          0.00000000	          0.00000000	          0.00000000	          0.00000000	          0.00000000	          0.00000000	          0.00000000	          0.00000000	
          1.10850000	       -156.99752200	        790.47214600	        -29.20462100	         -0.24695300	          0.00600000	         -0.49898100	          0.00000000	         -3.65948900	          0.00000000	        -99.68408200	        256.69907600	          2.62645700	         -0.21603000	          0.00600000	         -0.73134400	          0.00000000	          1.28910300	          0.00000000	          0.00000000	          0.00000000	          0.00000000	          0.00000000	          0.00000000	          0.00000000	          0.00000000	          0.00000000	          0.00000000	
          1.10900000	       -155.41760200	        790.64846800	        -29.00325800	         -0.24702100	          0.00600000	         -0.49900900	          0.00000000	         -3.70221100	          0.00000000	       -101.23178300	        256.27591400	          2.67380200	         -0.21500500	          0.00600000	         -0.73134100	          0.00000000	          1.25206100	          0.00000000	          0.00000000	          0.00000000	          0.00000000	          0.00000000	          0.00000000	          0.00000000	          0.00000000	          0.00000000	          0.00000000	
          1.10950000	       -153.83424600	        790.85718400	        -28.78702500	         -0.24709100	          0.00600000	         -0.49903800	          0.00000000	         -3.74622900	          0.00000000	       -102.67796600	        255.96320900	          2.69768700	         -0.21403800	          0.00600000	         -0.73133100	          0.00000000	          1.21772500	          0.00000000	          0.00000000	          0.00000000	          0.00000000	          0.00000000	          0.00000000	          0.00000000	          0.00000000	          0.00000000	          0.00000000	
          1.11000000	       -152.25051500	        791.09034300	        -28.55699700	         -0.24716200	          0.00600000	         -0.49906700	          0.00000000	         -3.79156200	          0.00000000	       -104.02639300	        255.75936500	          2.69997000	         -0.21312500	          0.00600000	         -0.73131400	          0.00000000	          1.18619900	          0.00000000	          0.00000000	          0.00000000	          0.00000000	          0.00000000	          0.00000000	          0.00000000	          0.00000000	          0.00000000	          0.00000000	
          1.11050000	       -150.66946400	        791.33982800	        -28.31414500	         -0.24723200	          0.00600000	         -0.49909700	          0.00000000	         -3.83819500	          0.00000000	       -105.28015500	        255.66334100	          2.68264400	         -0.21226600	          0.00600000	         -0.73129400	          0.00000000	          1.15788300	          0.00000000	          0.00000000	          0.00000000	          0.00000000	          0.00000000	          0.00000000	          0.00000000	          0.00000000	          0.00000000	          0.00000000	
